<?xml version="1.0" encoding="utf-8" standalone="no"?>
<!DOCTYPE svg PUBLIC "-//W3C//DTD SVG 1.1//EN"
  "http://www.w3.org/Graphics/SVG/1.1/DTD/svg11.dtd">
<!-- Created with matplotlib (http://matplotlib.org/) -->
<svg height="499pt" version="1.1" viewBox="0 0 862 499" width="862pt" xmlns="http://www.w3.org/2000/svg" xmlns:xlink="http://www.w3.org/1999/xlink">
 <defs>
  <style type="text/css">
*{stroke-linecap:butt;stroke-linejoin:round;stroke-miterlimit:100000;}
  </style>
 </defs>
 <g id="figure_1">
  <g id="patch_1">
   <path d="M 0 499.5 
L 862.2 499.5 
L 862.2 0 
L 0 0 
z
" style="fill:#ffffff;"/>
  </g>
  <g id="axes_1">
   <g id="patch_2">
    <path d="M 107.775 449.55 
L 775.98 449.55 
L 775.98 49.95 
L 107.775 49.95 
z
" style="fill:#ffffff;"/>
   </g>
   <g id="line2d_1">
    <path clip-path="url(#pee65bf5265)" d="M 107.775019 448.612002 
L 107.776212 448.607772 
L 107.888773 441.98451 
L 108.163214 441.8781 
L 108.387938 440.006815 
L 108.416973 438.228979 
L 108.598343 397.0446 
L 108.643288 396.937699 
L 108.76261 396.783406 
L 108.924093 396.675141 
L 109.041824 396.513703 
L 109.098304 396.403926 
L 109.230751 395.800261 
L 109.275696 395.700187 
L 109.393825 395.478014 
L 109.519114 395.379142 
L 109.637243 395.120314 
L 109.683779 395.024499 
L 109.800317 394.793311 
L 109.876285 394.689184 
L 109.990437 394.542724 
L 110.041348 394.447823 
L 110.155102 394.311388 
L 110.232264 394.209568 
L 110.346415 394.039513 
L 110.401701 393.929443 
L 110.530172 392.955568 
L 110.53932 392.862418 
L 110.656653 392.482821 
L 110.682109 392.385106 
L 110.871831 387.523115 
L 110.880184 387.418383 
L 110.997517 385.741009 
L 111.12559 384.579766 
L 111.135136 384.494803 
L 111.251674 384.09321 
L 111.26122 384.00507 
L 111.378156 383.557302 
L 111.415941 383.46547 
L 111.532877 382.997178 
L 111.551571 382.90177 
L 111.666518 382.578476 
L 111.687598 382.479616 
L 111.802943 382.111091 
L 112.065055 382.006821 
L 112.177615 381.859666 
L 112.274664 381.78482 
L 112.386429 381.708287 
L 112.455239 381.629356 
L 112.568197 381.429181 
L 112.666041 381.347809 
L 112.777409 381.306536 
L 112.894742 381.221629 
L 113.008099 380.961035 
L 113.040713 380.872564 
L 113.152876 380.738078 
L 113.223277 380.646954 
L 113.336633 380.368373 
L 113.481013 380.273002 
L 113.593176 380.127694 
L 113.640905 380.029243 
L 113.75267 379.929936 
L 113.77375 379.828904 
L 113.885515 379.72707 
L 114.018361 379.622011 
L 114.130126 379.516629 
L 114.179446 379.409099 
L 114.290814 379.355058 
L 114.410534 379.244475 
L 114.521901 379.188483 
L 114.566051 379.131265 
L 114.677418 379.073961 
L 114.704464 379.01569 
L 114.817821 378.662614 
L 114.857992 378.603107 
L 114.972144 378.122545 
L 115.079534 378.061092 
L 115.191697 377.87483 
L 115.280394 377.812027 
L 115.392954 377.556904 
L 115.476878 377.49235 
L 115.589438 377.230506 
L 115.824106 377.163078 
L 115.935473 377.09516 
L 116.037693 377.025769 
L 116.149856 376.815287 
L 116.17372 376.744535 
L 116.285088 376.673669 
L 116.464071 376.601102 
L 116.576234 376.38004 
L 116.589359 376.305748 
L 116.701125 376.156936 
L 116.922666 376.080514 
L 117.034034 376.003326 
L 117.192335 375.924894 
L 117.303702 375.845431 
L 117.505755 375.763738 
L 117.61752 375.599184 
L 117.736842 375.515611 
L 117.848608 375.347111 
L 118.271804 375.259904 
L 118.383172 375.171333 
L 118.46272 375.081405 
L 118.574485 374.900556 
L 118.683864 374.809059 
L 118.796027 374.531603 
L 118.939214 374.438307 
L 119.050581 374.344105 
L 119.157971 374.248584 
L 119.270134 373.959137 
L 119.325818 373.861978 
L 119.437981 373.568762 
L 120.551258 373.462453 
L 120.663024 373.246675 
L 120.814165 373.136854 
L 120.925931 372.916484 
L 120.97525 372.916484 
L 121.087413 372.581915 
L 121.122812 372.581915 
L 121.234975 372.24298 
L 121.628739 372.24298 
L 121.740504 372.008313 
L 121.752437 372.008313 
L 121.863804 371.890376 
L 122.30291 371.890376 
L 122.414675 371.644502 
L 122.488655 371.644502 
L 122.600023 371.520355 
L 122.674798 371.520355 
L 122.786563 371.268696 
L 122.866907 371.268696 
L 122.978672 371.013219 
L 123.054243 371.013219 
L 123.166008 370.75453 
L 123.714891 370.75453 
L 123.826259 370.620035 
L 123.837395 370.620035 
L 123.948763 370.484506 
L 126.141112 370.484506 
L 126.252479 370.32954 
L 127.304107 370.32954 
L 127.415474 370.164762 
L 127.612356 370.164762 
L 127.723724 369.997385 
L 129.552139 369.997385 
L 129.663507 369.813641 
L 129.866355 369.813641 
L 129.977722 369.627244 
L 130.494388 369.627244 
L 130.605756 369.435549 
L 131.079465 369.435549 
L 131.190833 369.238916 
L 131.258051 369.238916 
L 131.369418 369.040779 
L 133.261075 369.040779 
L 133.372443 368.825739 
L 133.761831 368.825739 
L 133.873199 368.606473 
L 134.657146 368.606473 
L 134.768514 368.379654 
L 135.929918 368.379654 
L 136.041285 368.142096 
L 136.044069 368.142096 
L 136.155835 367.664656 
L 140.562011 367.664656 
L 140.673378 367.388015 
L 143.033176 367.388015 
L 143.144543 367.090525 
L 143.169203 367.090525 
L 143.280571 366.791888 
L 145.36195 366.791888 
L 145.473318 366.474751 
L 148.77616 366.474751 
L 148.887527 366.128807 
L 152.543165 366.128807 
L 152.654533 365.751078 
L 158.742358 365.751078 
L 158.853726 365.321047 
L 165.212015 365.321047 
L 165.323382 364.836427 
L 170.096673 364.836427 
L 170.208041 364.310596 
L 171.350751 364.310596 
L 171.462118 363.774183 
L 175.881817 363.774183 
L 175.993185 363.199538 
L 185.371522 363.199538 
L 185.48289 362.544827 
L 189.200576 362.544827 
L 189.311943 361.857808 
L 193.551863 361.857808 
L 193.663231 361.134077 
L 209.963456 361.134077 
L 210.074824 360.271877 
L 212.851852 360.271877 
L 212.963219 359.385305 
L 214.63055 359.385305 
L 214.741917 358.483726 
L 224.48737 358.483726 
L 224.598737 357.498983 
L 225.740652 357.498983 
L 225.852019 356.503666 
L 228.895534 356.503666 
L 229.006902 355.481727 
L 230.50559 355.481727 
L 230.616958 354.446207 
L 234.481808 354.446207 
L 234.593175 353.377136 
L 234.836991 353.377136 
L 234.948358 352.305068 
L 247.786645 352.305068 
L 247.898013 351.12374 
L 252.824434 351.12374 
L 252.935801 349.899906 
L 258.213428 349.899906 
L 258.324795 348.630604 
L 259.980194 348.630604 
L 260.091561 347.346397 
L 260.111448 347.346397 
L 260.222816 346.06108 
L 268.954426 346.06108 
L 269.065794 344.701153 
L 273.043205 344.701153 
L 273.154572 343.306727 
L 273.988237 343.306727 
L 274.099605 341.904329 
L 279.565761 341.904329 
L 279.677128 340.454872 
L 280.93399 340.454872 
L 281.045358 338.993869 
L 282.464498 338.993869 
L 282.575865 337.519952 
L 287.517798 337.519952 
L 287.629166 336.003401 
L 291.746582 336.003401 
L 291.857949 334.451169 
L 293.695513 334.451169 
L 293.806881 332.882495 
L 296.698061 332.882495 
L 296.809428 331.288487 
L 298.68955 331.288487 
L 298.800918 329.677675 
L 299.437303 329.677675 
L 299.548671 328.060555 
L 302.058417 328.060555 
L 302.169785 326.42132 
L 302.672927 326.42132 
L 302.784295 324.776901 
L 303.144648 324.776901 
L 303.256016 323.128501 
L 303.988257 323.128501 
L 304.099624 321.472985 
L 304.213378 321.472985 
L 304.324746 319.815566 
L 304.931301 319.815566 
L 305.042669 318.152092 
L 307.834413 318.152092 
L 307.945781 316.464123 
L 308.600463 316.464123 
L 308.71183 314.769689 
L 310.253475 314.769689 
L 310.364842 313.061309 
L 311.27726 313.061309 
L 311.388628 311.344291 
L 311.416072 311.344291 
L 311.527439 309.626101 
L 314.961536 309.626101 
L 315.072903 307.877998 
L 316.056915 307.877998 
L 316.168282 306.120655 
L 316.449088 306.120655 
L 316.560455 304.360001 
L 317.381393 304.360001 
L 317.49276 302.59148 
L 318.023745 302.59148 
L 318.135112 300.81754 
L 318.369382 300.81754 
L 318.480749 299.040683 
L 318.561093 299.040683 
L 318.67246 297.262208 
L 319.370894 297.262208 
L 319.482261 295.476903 
L 326.745411 295.476903 
L 326.856779 293.629375 
L 329.115948 293.629375 
L 329.227316 291.761847 
L 329.909044 291.761847 
L 330.020411 289.887628 
L 330.357696 289.887628 
L 330.469063 288.009625 
L 336.684166 288.009625 
L 336.795931 284.146065 
L 338.149444 284.146065 
L 338.260811 282.202318 
L 340.380374 282.202318 
L 340.491741 280.23975 
L 341.360805 280.23975 
L 341.472173 278.268908 
L 342.221915 278.268908 
L 342.333282 276.290799 
L 342.98876 276.290799 
L 343.100127 274.306223 
L 343.11206 274.306223 
L 343.223427 272.320604 
L 344.216984 272.320604 
L 344.328352 270.325665 
L 344.39915 270.325665 
L 344.510517 268.329189 
L 344.845017 268.329189 
L 344.956385 266.32895 
L 346.248646 266.32895 
L 346.360013 264.31687 
L 347.470109 264.31687 
L 347.581476 262.294483 
L 347.840008 262.294483 
L 347.951375 260.268974 
L 351.359221 260.268974 
L 351.470589 258.213771 
L 352.749724 258.213771 
L 352.861091 256.146835 
L 354.324779 256.146835 
L 354.436146 254.066612 
L 354.447283 254.066612 
L 354.55865 251.985354 
L 355.626983 251.985354 
L 355.738748 247.802606 
L 355.817501 247.802606 
L 355.928868 245.709788 
L 356.823786 245.709788 
L 356.935153 243.608481 
L 357.45699 243.608481 
L 357.568357 241.501831 
L 358.239346 241.501831 
L 358.350714 239.38858 
L 358.981134 239.38858 
L 359.092501 237.269071 
L 359.834288 237.269071 
L 359.945656 235.142362 
L 360.782503 235.142362 
L 360.893871 233.007654 
L 361.104673 233.007654 
L 361.216041 230.870228 
L 362.568758 230.870228 
L 362.680126 228.72045 
L 365.504088 228.72045 
L 365.615455 226.545903 
L 368.902387 226.545903 
L 369.013755 224.342683 
L 370.441645 224.342683 
L 370.553013 222.126476 
L 371.958232 222.126476 
L 372.0696 219.897472 
L 372.433135 219.897472 
L 372.5449 215.430898 
L 373.609653 215.430898 
L 373.721021 213.187963 
L 373.987905 213.187963 
L 374.099273 210.941835 
L 374.145411 210.941835 
L 374.256778 208.694379 
L 374.277063 208.694379 
L 374.388828 204.196504 
L 374.994985 204.196504 
L 375.106353 201.94188 
L 376.529073 201.94188 
L 376.64044 199.674312 
L 379.205473 199.674312 
L 379.317238 195.093943 
L 379.499403 195.093943 
L 379.610771 192.801315 
L 379.84504 192.801315 
L 379.956408 190.50577 
L 380.191871 190.50577 
L 380.303238 188.207298 
L 381.113834 188.207298 
L 381.225202 185.901048 
L 381.28009 185.901048 
L 381.391458 183.593394 
L 383.152655 183.593394 
L 383.264023 181.269943 
L 384.296559 181.269943 
L 384.407926 178.936838 
L 386.212478 178.936838 
L 386.323845 176.587568 
L 388.028166 176.587568 
L 388.139533 174.222977 
L 389.454067 174.222977 
L 389.565435 171.846359 
L 390.489785 171.846359 
L 390.601153 169.461001 
L 392.626053 169.461001 
L 392.73742 167.057618 
L 393.048851 167.057618 
L 393.160219 164.650668 
L 396.580395 164.650668 
L 396.691762 162.21392 
L 399.880055 162.21392 
L 399.991422 159.749333 
L 401.263398 159.749333 
L 401.374766 157.273073 
L 401.672276 157.273073 
L 401.783644 154.793364 
L 402.495202 154.793364 
L 402.60657 152.306711 
L 403.08903 152.306711 
L 403.200397 149.815049 
L 405.833046 149.815049 
L 405.944413 147.300236 
L 406.869161 147.300236 
L 406.980529 144.776678 
L 409.451694 144.776678 
L 409.563062 142.231332 
L 411.722398 142.231332 
L 411.833765 139.666827 
L 415.722082 139.666827 
L 415.83345 137.068574 
L 419.903137 137.068574 
L 420.014504 134.435046 
L 422.151965 134.435046 
L 422.263332 131.782545 
L 424.900356 131.782545 
L 425.011723 129.106855 
L 425.458387 129.106855 
L 425.569754 126.426455 
L 427.56721 126.426455 
L 427.678577 123.728262 
L 431.222053 123.728262 
L 431.33342 120.999234 
L 432.490847 120.999234 
L 432.602214 118.2595 
L 433.090243 118.2595 
L 433.20161 115.514707 
L 435.341059 115.514707 
L 435.452427 112.750925 
L 435.6684 112.750925 
L 435.779768 109.984379 
L 438.784304 109.984379 
L 438.895672 107.191545 
L 444.528083 107.191545 
L 444.639451 104.35025 
L 448.608907 104.35025 
L 448.720274 101.474522 
L 449.660137 101.474522 
L 449.771504 98.589924 
L 451.792427 98.589924 
L 451.903794 95.687334 
L 453.223101 95.687334 
L 453.334469 92.772675 
L 454.99464 92.772675 
L 455.106008 89.843067 
L 487.286444 89.843067 
L 487.397811 86.641004 
L 495.660883 86.641004 
L 495.77225 83.368284 
L 511.831444 83.368284 
L 511.942812 79.959129 
L 517.728752 79.959129 
L 517.840119 76.500215 
L 555.159768 76.500215 
L 555.271136 72.725483 
L 560.099315 72.725483 
L 560.210682 68.909075 
L 576.833078 68.909075 
L 576.944445 64.951481 
L 649.988404 64.951481 
L 650.099771 60.376649 
L 675.502699 60.376649 
L 675.614067 55.586547 
L 775.82414 55.586547 
L 775.824537 49.95 
L 775.824537 49.95 
" style="fill:none;stroke:#0000ff;stroke-linecap:square;"/>
   </g>
   <g id="line2d_2">
    <path clip-path="url(#pee65bf5265)" d="M 107.775019 448.679297 
L 107.776212 448.67621 
L 107.888375 441.366116 
L 108.060199 441.255009 
L 108.416576 438.741264 
L 108.610275 399.340889 
L 108.740337 399.234889 
L 108.862841 399.012245 
L 108.924491 398.913819 
L 109.040631 398.67335 
L 109.073644 398.571306 
L 109.191375 398.398401 
L 109.277685 398.293697 
L 109.392235 398.182684 
L 109.439566 398.077686 
L 109.605822 396.229755 
L 109.629288 396.141605 
L 109.743838 395.869757 
L 109.797135 395.774348 
L 109.911287 395.641022 
L 110.148738 395.534292 
L 110.262492 395.398197 
L 110.309426 395.298221 
L 110.42835 394.901368 
L 110.430737 394.795653 
L 110.560798 393.780902 
L 110.575117 393.714237 
L 110.693644 392.848134 
L 110.724667 392.75463 
L 110.860695 391.265648 
L 110.867854 391.167165 
L 110.987972 390.591618 
L 111.00945 390.488881 
L 111.126386 390.097813 
L 111.188433 389.98993 
L 111.302983 389.741136 
L 111.341166 389.656099 
L 111.453727 389.540334 
L 111.623165 389.4507 
L 111.73493 389.388693 
L 112.442511 389.29072 
L 112.554277 389.216063 
L 112.679963 389.139135 
L 112.791728 389.060476 
L 112.872072 388.980323 
L 112.984235 388.858189 
L 113.058215 388.774215 
L 113.16998 388.689554 
L 113.377998 388.602284 
L 113.490559 388.422826 
L 113.531129 388.331544 
L 113.643292 388.193789 
L 113.704942 388.099808 
L 113.818696 387.7655 
L 113.856481 387.668754 
L 113.968644 387.522261 
L 114.157571 387.472607 
L 114.269336 387.217047 
L 114.348885 387.113154 
L 114.461843 386.85001 
L 114.632872 386.742116 
L 114.748217 386.137381 
L 114.770888 386.081836 
L 114.883449 385.85761 
L 114.904529 385.80097 
L 115.017487 385.515878 
L 115.039761 385.458082 
L 115.152719 385.167514 
L 115.160674 385.108711 
L 115.276019 384.458241 
L 115.29352 384.398401 
L 115.407671 383.916713 
L 115.43074 383.855915 
L 115.547279 382.997044 
L 115.554836 382.935112 
L 115.667794 382.62343 
L 115.810583 382.559613 
L 115.923939 382.173191 
L 116.082638 382.108247 
L 116.195199 381.841745 
L 116.296623 381.774458 
L 116.408388 381.638525 
L 116.542825 381.569282 
L 116.65459 381.429129 
L 117.035626 381.355488 
L 117.146993 381.281742 
L 117.252793 381.206474 
L 117.36416 381.130999 
L 118.199416 381.054133 
L 118.311182 380.887618 
L 118.755061 380.802122 
L 118.866826 380.626468 
L 118.891486 380.538104 
L 119.003251 380.3608 
L 119.20252 380.270236 
L 119.314285 380.087514 
L 119.349286 379.995356 
L 119.461449 379.717535 
L 119.509973 379.624376 
L 119.622136 379.342546 
L 119.670661 379.247981 
L 119.782824 378.962467 
L 119.85044 378.866441 
L 119.961807 378.770281 
L 120.156701 378.67219 
L 120.268466 378.474794 
L 120.374265 378.375027 
L 120.486826 377.972394 
L 120.532566 377.870992 
L 120.645127 377.462699 
L 120.667002 377.360138 
L 120.77837 377.257475 
L 120.793086 377.153823 
L 120.905249 376.84128 
L 121.049629 376.736523 
L 121.160997 376.630813 
L 121.247307 376.524098 
L 121.359072 376.309503 
L 121.495497 376.200566 
L 121.60766 375.871405 
L 121.799371 375.760781 
L 121.911137 375.536705 
L 121.9704 375.536705 
L 122.082165 375.310334 
L 122.133076 375.310334 
L 122.244444 375.195998 
L 122.348652 375.195998 
L 122.460417 374.963399 
L 122.95998 374.963399 
L 123.071348 374.842476 
L 123.640913 374.842476 
L 123.75228 374.716133 
L 123.927684 374.716133 
L 124.039052 374.587505 
L 125.354382 374.587505 
L 125.466545 374.166563 
L 125.564389 374.166563 
L 125.676154 373.882879 
L 125.91281 373.882879 
L 126.024178 373.738443 
L 126.176513 373.738443 
L 126.28788 373.591907 
L 126.306574 373.591907 
L 126.418737 373.14838 
L 126.586584 373.14838 
L 126.698349 372.848112 
L 126.71585 372.848112 
L 126.827615 372.546298 
L 126.82841 372.546298 
L 126.939778 372.39457 
L 127.090522 372.39457 
L 127.201889 372.240758 
L 127.349053 372.240758 
L 127.460819 371.928764 
L 127.465592 371.928764 
L 127.577357 371.615055 
L 127.60321 371.615055 
L 127.714975 371.29867 
L 128.164423 371.29867 
L 128.27579 371.136304 
L 129.085591 371.136304 
L 129.196959 370.966605 
L 129.646008 370.966605 
L 129.757376 370.792443 
L 129.885051 370.792443 
L 129.996816 370.440193 
L 130.064432 370.440193 
L 130.1758 370.262699 
L 130.358761 370.262699 
L 130.470128 370.082861 
L 130.587462 370.082861 
L 130.698829 369.901202 
L 131.111685 369.901202 
L 131.223052 369.715368 
L 131.745286 369.715368 
L 131.856654 369.524489 
L 131.92069 369.524489 
L 132.032058 369.332214 
L 132.118765 369.332214 
L 132.230133 369.138361 
L 133.487392 369.138361 
L 133.59876 368.933612 
L 133.908998 368.933612 
L 134.020365 368.725502 
L 134.14287 368.725502 
L 134.254237 368.515532 
L 134.407368 368.515532 
L 134.518735 368.303455 
L 134.894203 368.303455 
L 135.005968 367.870664 
L 136.556761 367.870664 
L 136.668526 367.411937 
L 138.764622 367.411937 
L 138.875989 367.165165 
L 144.423285 367.165165 
L 144.534652 366.873331 
L 146.353125 366.873331 
L 146.464492 366.566131 
L 149.471017 366.566131 
L 149.582385 366.234102 
L 157.449307 366.234102 
L 157.560674 365.838542 
L 157.818808 365.838542 
L 157.930176 365.44004 
L 159.424489 365.44004 
L 159.535857 365.028752 
L 170.182591 365.028752 
L 170.293959 364.531798 
L 176.168993 364.531798 
L 176.280759 363.44198 
L 177.070672 363.44198 
L 177.18204 362.890176 
L 178.059457 362.890176 
L 178.170824 362.3305 
L 178.340262 362.3305 
L 178.45163 361.768588 
L 180.348457 361.768588 
L 180.459825 361.190685 
L 183.978243 361.190685 
L 184.08961 360.583877 
L 185.466192 360.583877 
L 185.57756 359.965223 
L 186.44742 359.965223 
L 186.559185 358.711553 
L 186.698792 358.711553 
L 186.81016 358.083082 
L 187.577402 358.083082 
L 187.68877 357.447614 
L 188.069806 357.447614 
L 188.181173 356.808226 
L 188.2997 356.808226 
L 188.411068 356.167006 
L 189.550596 356.167006 
L 189.661963 355.515828 
L 189.931234 355.515828 
L 190.042602 354.861616 
L 190.072432 354.861616 
L 190.1838 354.20628 
L 190.411308 354.20628 
L 190.522675 353.548247 
L 190.640009 353.548247 
L 190.751376 352.888392 
L 190.817401 352.888392 
L 190.928769 352.227125 
L 190.998771 352.227125 
L 191.110139 351.564413 
L 191.984772 351.564413 
L 192.096139 350.893851 
L 192.156198 350.893851 
L 192.267566 350.221922 
L 192.359444 350.221922 
L 192.470811 349.548375 
L 192.759571 349.548375 
L 192.870939 348.871642 
L 193.432152 348.871642 
L 193.543519 348.189553 
L 194.43088 348.189553 
L 194.542247 347.499511 
L 195.071243 347.499511 
L 195.18261 346.804372 
L 195.688139 346.804372 
L 195.799507 346.104319 
L 196.478451 346.104319 
L 196.589818 345.397972 
L 198.036005 345.397972 
L 198.147771 343.960055 
L 199.083655 343.960055 
L 199.195023 343.232963 
L 200.076815 343.232963 
L 200.188183 342.497963 
L 200.491659 342.497963 
L 200.603027 341.75966 
L 200.890593 341.75966 
L 201.002359 340.276638 
L 201.12009 340.276638 
L 201.231458 339.533331 
L 201.489591 339.533331 
L 201.600959 338.787082 
L 202.395646 338.787082 
L 202.507013 338.033617 
L 202.696338 338.033617 
L 202.807706 337.277759 
L 203.513696 337.277759 
L 203.625461 335.752849 
L 204.123831 335.752849 
L 204.235199 334.985623 
L 204.936416 334.985623 
L 205.048181 333.437359 
L 205.735478 333.437359 
L 205.847243 331.876905 
L 207.402013 331.876905 
L 207.513381 331.083574 
L 207.530484 331.083574 
L 207.643442 327.110492 
L 207.730945 327.110492 
L 207.842711 325.518445 
L 208.23011 325.518445 
L 208.341478 324.718521 
L 208.343069 324.718521 
L 208.454436 323.917698 
L 208.697854 323.917698 
L 208.809222 323.11405 
L 208.998944 323.11405 
L 209.110709 321.501902 
L 209.215315 321.501902 
L 209.326683 320.694135 
L 209.331058 320.694135 
L 209.442425 319.885445 
L 209.45038 319.885445 
L 209.561748 319.075803 
L 210.024718 319.075803 
L 210.136086 318.261588 
L 210.256602 318.261588 
L 210.367969 317.445528 
L 210.626103 317.445528 
L 210.737471 316.626526 
L 211.27283 316.626526 
L 211.384595 314.977975 
L 211.485224 314.977975 
L 211.596591 314.15213 
L 211.605739 314.15213 
L 211.717107 313.325325 
L 211.959729 313.325325 
L 212.071097 312.495704 
L 212.676459 312.495704 
L 212.787826 311.660373 
L 213.543137 311.660373 
L 213.654504 310.818141 
L 213.943662 310.818141 
L 214.055029 309.972719 
L 214.603117 309.972719 
L 214.714484 309.122047 
L 215.324221 309.122047 
L 215.435589 308.265634 
L 215.830944 308.265634 
L 215.942311 307.405183 
L 216.065611 307.405183 
L 216.176978 306.542866 
L 216.600573 306.542866 
L 216.71194 305.676289 
L 216.750123 305.676289 
L 216.861889 303.940352 
L 217.036895 303.940352 
L 217.148262 303.070301 
L 217.776693 303.070301 
L 217.888061 302.194358 
L 217.958859 302.194358 
L 218.070226 301.316965 
L 218.491434 301.316965 
L 218.602801 300.435331 
L 218.666042 300.435331 
L 218.777808 298.669268 
L 218.812809 298.669268 
L 218.924176 297.785076 
L 219.150491 297.785076 
L 219.261859 296.898195 
L 219.304417 296.898195 
L 219.415784 296.010088 
L 219.607098 296.010088 
L 219.718465 295.11957 
L 220.894188 295.11957 
L 221.005556 294.218803 
L 221.151129 294.218803 
L 221.262894 292.412461 
L 221.30068 292.412461 
L 221.412047 291.508457 
L 221.605747 291.508457 
L 221.717115 290.602024 
L 221.923542 290.602024 
L 222.035307 288.783741 
L 222.544018 288.783741 
L 222.655386 287.869836 
L 223.022501 287.869836 
L 223.134266 286.033732 
L 224.903816 286.033732 
L 225.015184 285.101037 
L 226.589046 285.101037 
L 226.700413 284.154922 
L 226.711152 284.154922 
L 226.82252 283.207834 
L 227.054801 283.207834 
L 227.166168 282.258011 
L 227.534079 282.258011 
L 227.645446 281.30437 
L 228.197909 281.30437 
L 228.309276 280.345445 
L 228.675198 280.345445 
L 228.786565 279.382718 
L 228.824749 279.382718 
L 228.936116 278.418799 
L 229.704154 278.418799 
L 229.815522 277.44788 
L 230.978517 277.44788 
L 231.089884 276.466812 
L 231.663427 276.466812 
L 231.774795 275.480291 
L 232.038497 275.480291 
L 232.150262 273.501127 
L 232.351121 273.501127 
L 232.462489 272.509127 
L 233.866117 272.509127 
L 233.977485 271.505066 
L 234.70734 271.505066 
L 234.818707 270.494305 
L 237.051228 270.494305 
L 237.162596 269.464881 
L 237.786254 269.464881 
L 237.897622 268.429604 
L 237.913133 268.429604 
L 238.024501 267.393316 
L 238.789755 267.393316 
L 238.901122 266.350046 
L 241.673776 266.350046 
L 241.785143 265.283813 
L 242.125212 265.283813 
L 242.23658 264.213983 
L 244.311197 264.213983 
L 244.422565 263.126746 
L 247.590573 263.126746 
L 247.70194 262.013396 
L 249.769399 262.013396 
L 249.880766 260.882696 
L 249.984975 260.882696 
L 250.096342 259.75028 
L 250.241915 259.75028 
L 250.353283 258.615819 
L 250.600678 258.615819 
L 250.712841 255.202655 
L 251.39616 255.202655 
L 251.507528 254.059003 
L 251.722308 254.059003 
L 251.833675 252.912752 
L 252.619214 252.912752 
L 252.730979 250.605124 
L 252.737741 250.605124 
L 252.849108 249.450787 
L 257.818884 249.450787 
L 257.930251 248.25599 
L 258.723347 248.25599 
L 258.834715 247.053992 
L 258.961594 247.053992 
L 259.072962 245.850096 
L 260.340165 245.850096 
L 260.451532 244.635222 
L 261.096669 244.635222 
L 261.208036 243.414326 
L 263.248448 243.414326 
L 263.359816 242.176292 
L 265.801151 242.176292 
L 265.912518 240.917932 
L 267.536098 240.917932 
L 267.647465 239.645758 
L 269.013308 239.645758 
L 269.124676 238.36182 
L 269.650887 238.36182 
L 269.762255 237.072805 
L 271.905284 237.072805 
L 272.016651 235.765837 
L 273.63864 235.765837 
L 273.750007 234.44507 
L 277.197627 234.44507 
L 277.308995 233.095959 
L 277.493149 233.095959 
L 277.604517 231.744497 
L 279.045135 231.744497 
L 279.156502 230.380676 
L 281.367545 230.380676 
L 281.478913 228.998363 
L 281.829323 228.998363 
L 281.941088 226.225544 
L 282.379001 226.225544 
L 282.490369 224.835175 
L 285.380356 224.835175 
L 285.491723 223.420908 
L 285.781279 223.420908 
L 285.892646 222.003446 
L 286.572386 222.003446 
L 286.683753 220.579686 
L 289.279014 220.579686 
L 289.390382 219.134375 
L 289.413848 219.134375 
L 289.525216 217.68799 
L 289.739598 217.68799 
L 289.850966 216.239008 
L 291.286016 216.239008 
L 291.397384 214.777713 
L 295.205755 214.777713 
L 295.317122 213.285207 
L 296.488868 213.285207 
L 296.600235 211.782483 
L 301.744619 211.782483 
L 301.855987 210.237908 
L 302.171395 210.237908 
L 302.282763 208.689934 
L 302.309809 208.689934 
L 302.421177 207.140858 
L 304.907457 207.140858 
L 305.018824 205.571098 
L 306.091134 205.571098 
L 306.202502 203.991913 
L 307.418794 203.991913 
L 307.530162 202.402153 
L 310.517993 202.402153 
L 310.629361 200.787715 
L 311.957816 200.787715 
L 312.069183 199.161813 
L 319.991391 199.161813 
L 320.102759 197.47194 
L 321.928788 197.47194 
L 322.040156 195.76664 
L 322.933085 195.76664 
L 323.044452 194.053343 
L 330.506871 194.053343 
L 330.618239 192.279736 
L 333.112871 192.279736 
L 333.224239 190.485376 
L 338.407601 190.485376 
L 338.518969 188.648856 
L 348.583013 188.648856 
L 348.69438 186.73131 
L 351.49408 186.73131 
L 351.605845 182.848973 
L 355.308417 182.848973 
L 355.419785 180.877871 
L 358.086639 180.877871 
L 358.198404 176.890895 
L 359.649762 176.890895 
L 359.761129 174.885224 
L 359.783801 174.885224 
L 359.895168 172.878485 
L 366.724781 172.878485 
L 366.836149 170.816474 
L 368.386544 170.816474 
L 368.497911 168.741231 
L 371.661146 168.741231 
L 371.772514 166.639913 
L 373.059206 166.639913 
L 373.170574 164.527462 
L 387.27885 164.527462 
L 387.390217 162.301783 
L 387.478516 162.301783 
L 387.589883 160.074512 
L 399.697123 160.074512 
L 399.808491 157.749945 
L 403.538507 157.749945 
L 403.649875 155.39479 
L 406.391107 155.39479 
L 406.502474 153.016919 
L 410.314027 153.016919 
L 410.425395 150.607812 
L 410.446475 150.607812 
L 410.557843 148.19765 
L 421.834599 148.19765 
L 421.945967 145.696806 
L 432.127742 145.696806 
L 432.239109 143.113996 
L 436.36289 143.113996 
L 436.474257 140.497461 
L 440.430986 140.497461 
L 440.542353 137.848532 
L 444.051623 137.848532 
L 444.162991 135.170773 
L 444.631928 135.170773 
L 444.743295 132.488394 
L 447.697716 132.488394 
L 447.809084 129.781602 
L 448.645533 129.781602 
L 448.756901 127.06726 
L 455.142237 127.06726 
L 455.253605 124.301188 
L 461.469901 124.301188 
L 461.581268 121.484729 
L 467.226806 121.484729 
L 467.338173 118.622427 
L 468.23508 118.622427 
L 468.346447 115.752097 
L 481.765438 115.752097 
L 481.876805 112.774023 
L 490.096523 112.774023 
L 490.208289 106.685175 
L 491.940053 106.685175 
L 492.051421 103.626084 
L 516.237264 103.626084 
L 516.348631 100.373514 
L 531.372109 100.373514 
L 531.483477 97.000426 
L 542.908591 97.000426 
L 543.019958 93.535474 
L 545.181681 93.535474 
L 545.293049 90.052421 
L 556.357412 90.052421 
L 556.468779 86.480375 
L 565.838367 86.480375 
L 565.949735 82.832835 
L 568.247883 82.832835 
L 568.35925 79.166108 
L 581.517323 79.166108 
L 581.62869 75.393716 
L 583.040273 75.393716 
L 583.151641 71.609195 
L 589.155941 71.609195 
L 589.267309 67.775978 
L 604.187772 67.775978 
L 604.299139 63.823063 
L 659.710047 63.823063 
L 659.821415 59.428025 
L 675.888168 59.428025 
L 675.999535 54.904162 
L 729.925676 54.904162 
L 729.926074 49.95 
L 729.926074 49.95 
" style="fill:none;stroke:#008000;stroke-linecap:square;"/>
   </g>
   <g id="patch_3">
    <path d="M 107.775 49.95 
L 775.98 49.95 
" style="fill:none;stroke:#000000;stroke-linecap:square;stroke-linejoin:miter;"/>
   </g>
   <g id="patch_4">
    <path d="M 775.98 449.55 
L 775.98 49.95 
" style="fill:none;stroke:#000000;stroke-linecap:square;stroke-linejoin:miter;"/>
   </g>
   <g id="patch_5">
    <path d="M 107.775 449.55 
L 775.98 449.55 
" style="fill:none;stroke:#000000;stroke-linecap:square;stroke-linejoin:miter;"/>
   </g>
   <g id="patch_6">
    <path d="M 107.775 449.55 
L 107.775 49.95 
" style="fill:none;stroke:#000000;stroke-linecap:square;stroke-linejoin:miter;"/>
   </g>
   <g id="matplotlib.axis_1">
    <g id="xtick_1">
     <g id="line2d_3">
      <path clip-path="url(#pee65bf5265)" d="M 107.775 449.55 
L 107.775 49.95 
" style="fill:none;stroke:#000000;stroke-dasharray:1.000000,3.000000;stroke-dashoffset:0.0;stroke-width:0.5;"/>
     </g>
     <g id="line2d_4">
      <defs>
       <path d="M 0 0 
L 0 -4 
" id="m38c1980014" style="stroke:#000000;stroke-width:0.5;"/>
      </defs>
      <g>
       <use style="stroke:#000000;stroke-width:0.5;" x="107.775" xlink:href="#m38c1980014" y="449.55"/>
      </g>
     </g>
     <g id="line2d_5">
      <defs>
       <path d="M 0 0 
L 0 4 
" id="md4ad234006" style="stroke:#000000;stroke-width:0.5;"/>
      </defs>
      <g>
       <use style="stroke:#000000;stroke-width:0.5;" x="107.775" xlink:href="#md4ad234006" y="49.95"/>
      </g>
     </g>
     <g id="text_1">
      <!-- 0 -->
      <defs>
       <path d="M 31.78125 66.40625 
Q 24.171875 66.40625 20.328125 58.90625 
Q 16.5 51.421875 16.5 36.375 
Q 16.5 21.390625 20.328125 13.890625 
Q 24.171875 6.390625 31.78125 6.390625 
Q 39.453125 6.390625 43.28125 13.890625 
Q 47.125 21.390625 47.125 36.375 
Q 47.125 51.421875 43.28125 58.90625 
Q 39.453125 66.40625 31.78125 66.40625 
M 31.78125 74.21875 
Q 44.046875 74.21875 50.515625 64.515625 
Q 56.984375 54.828125 56.984375 36.375 
Q 56.984375 17.96875 50.515625 8.265625 
Q 44.046875 -1.421875 31.78125 -1.421875 
Q 19.53125 -1.421875 13.0625 8.265625 
Q 6.59375 17.96875 6.59375 36.375 
Q 6.59375 54.828125 13.0625 64.515625 
Q 19.53125 74.21875 31.78125 74.21875 
" id="BitstreamVeraSans-Roman-30"/>
      </defs>
      <g transform="translate(100.77625 470.2665625)scale(0.22 -0.22)">
       <use xlink:href="#BitstreamVeraSans-Roman-30"/>
      </g>
     </g>
    </g>
    <g id="xtick_2">
     <g id="line2d_6">
      <path clip-path="url(#pee65bf5265)" d="M 203.232857 449.55 
L 203.232857 49.95 
" style="fill:none;stroke:#000000;stroke-dasharray:1.000000,3.000000;stroke-dashoffset:0.0;stroke-width:0.5;"/>
     </g>
     <g id="line2d_7">
      <g>
       <use style="stroke:#000000;stroke-width:0.5;" x="203.232857143" xlink:href="#m38c1980014" y="449.55"/>
      </g>
     </g>
     <g id="line2d_8">
      <g>
       <use style="stroke:#000000;stroke-width:0.5;" x="203.232857143" xlink:href="#md4ad234006" y="49.95"/>
      </g>
     </g>
     <g id="text_2">
      <!-- 50 -->
      <defs>
       <path d="M 10.796875 72.90625 
L 49.515625 72.90625 
L 49.515625 64.59375 
L 19.828125 64.59375 
L 19.828125 46.734375 
Q 21.96875 47.46875 24.109375 47.828125 
Q 26.265625 48.1875 28.421875 48.1875 
Q 40.625 48.1875 47.75 41.5 
Q 54.890625 34.8125 54.890625 23.390625 
Q 54.890625 11.625 47.5625 5.09375 
Q 40.234375 -1.421875 26.90625 -1.421875 
Q 22.3125 -1.421875 17.546875 -0.640625 
Q 12.796875 0.140625 7.71875 1.703125 
L 7.71875 11.625 
Q 12.109375 9.234375 16.796875 8.0625 
Q 21.484375 6.890625 26.703125 6.890625 
Q 35.15625 6.890625 40.078125 11.328125 
Q 45.015625 15.765625 45.015625 23.390625 
Q 45.015625 31 40.078125 35.4375 
Q 35.15625 39.890625 26.703125 39.890625 
Q 22.75 39.890625 18.8125 39.015625 
Q 14.890625 38.140625 10.796875 36.28125 
z
" id="BitstreamVeraSans-Roman-35"/>
      </defs>
      <g transform="translate(189.235357143 470.2665625)scale(0.22 -0.22)">
       <use xlink:href="#BitstreamVeraSans-Roman-35"/>
       <use x="63.623046875" xlink:href="#BitstreamVeraSans-Roman-30"/>
      </g>
     </g>
    </g>
    <g id="xtick_3">
     <g id="line2d_9">
      <path clip-path="url(#pee65bf5265)" d="M 298.690714 449.55 
L 298.690714 49.95 
" style="fill:none;stroke:#000000;stroke-dasharray:1.000000,3.000000;stroke-dashoffset:0.0;stroke-width:0.5;"/>
     </g>
     <g id="line2d_10">
      <g>
       <use style="stroke:#000000;stroke-width:0.5;" x="298.690714286" xlink:href="#m38c1980014" y="449.55"/>
      </g>
     </g>
     <g id="line2d_11">
      <g>
       <use style="stroke:#000000;stroke-width:0.5;" x="298.690714286" xlink:href="#md4ad234006" y="49.95"/>
      </g>
     </g>
     <g id="text_3">
      <!-- 100 -->
      <defs>
       <path d="M 12.40625 8.296875 
L 28.515625 8.296875 
L 28.515625 63.921875 
L 10.984375 60.40625 
L 10.984375 69.390625 
L 28.421875 72.90625 
L 38.28125 72.90625 
L 38.28125 8.296875 
L 54.390625 8.296875 
L 54.390625 0 
L 12.40625 0 
z
" id="BitstreamVeraSans-Roman-31"/>
      </defs>
      <g transform="translate(277.694464286 470.2665625)scale(0.22 -0.22)">
       <use xlink:href="#BitstreamVeraSans-Roman-31"/>
       <use x="63.623046875" xlink:href="#BitstreamVeraSans-Roman-30"/>
       <use x="127.24609375" xlink:href="#BitstreamVeraSans-Roman-30"/>
      </g>
     </g>
    </g>
    <g id="xtick_4">
     <g id="line2d_12">
      <path clip-path="url(#pee65bf5265)" d="M 394.148571 449.55 
L 394.148571 49.95 
" style="fill:none;stroke:#000000;stroke-dasharray:1.000000,3.000000;stroke-dashoffset:0.0;stroke-width:0.5;"/>
     </g>
     <g id="line2d_13">
      <g>
       <use style="stroke:#000000;stroke-width:0.5;" x="394.148571429" xlink:href="#m38c1980014" y="449.55"/>
      </g>
     </g>
     <g id="line2d_14">
      <g>
       <use style="stroke:#000000;stroke-width:0.5;" x="394.148571429" xlink:href="#md4ad234006" y="49.95"/>
      </g>
     </g>
     <g id="text_4">
      <!-- 150 -->
      <g transform="translate(373.152321429 470.2665625)scale(0.22 -0.22)">
       <use xlink:href="#BitstreamVeraSans-Roman-31"/>
       <use x="63.623046875" xlink:href="#BitstreamVeraSans-Roman-35"/>
       <use x="127.24609375" xlink:href="#BitstreamVeraSans-Roman-30"/>
      </g>
     </g>
    </g>
    <g id="xtick_5">
     <g id="line2d_15">
      <path clip-path="url(#pee65bf5265)" d="M 489.606429 449.55 
L 489.606429 49.95 
" style="fill:none;stroke:#000000;stroke-dasharray:1.000000,3.000000;stroke-dashoffset:0.0;stroke-width:0.5;"/>
     </g>
     <g id="line2d_16">
      <g>
       <use style="stroke:#000000;stroke-width:0.5;" x="489.606428571" xlink:href="#m38c1980014" y="449.55"/>
      </g>
     </g>
     <g id="line2d_17">
      <g>
       <use style="stroke:#000000;stroke-width:0.5;" x="489.606428571" xlink:href="#md4ad234006" y="49.95"/>
      </g>
     </g>
     <g id="text_5">
      <!-- 200 -->
      <defs>
       <path d="M 19.1875 8.296875 
L 53.609375 8.296875 
L 53.609375 0 
L 7.328125 0 
L 7.328125 8.296875 
Q 12.9375 14.109375 22.625 23.890625 
Q 32.328125 33.6875 34.8125 36.53125 
Q 39.546875 41.84375 41.421875 45.53125 
Q 43.3125 49.21875 43.3125 52.78125 
Q 43.3125 58.59375 39.234375 62.25 
Q 35.15625 65.921875 28.609375 65.921875 
Q 23.96875 65.921875 18.8125 64.3125 
Q 13.671875 62.703125 7.8125 59.421875 
L 7.8125 69.390625 
Q 13.765625 71.78125 18.9375 73 
Q 24.125 74.21875 28.421875 74.21875 
Q 39.75 74.21875 46.484375 68.546875 
Q 53.21875 62.890625 53.21875 53.421875 
Q 53.21875 48.921875 51.53125 44.890625 
Q 49.859375 40.875 45.40625 35.40625 
Q 44.1875 33.984375 37.640625 27.21875 
Q 31.109375 20.453125 19.1875 8.296875 
" id="BitstreamVeraSans-Roman-32"/>
      </defs>
      <g transform="translate(468.610178571 470.2665625)scale(0.22 -0.22)">
       <use xlink:href="#BitstreamVeraSans-Roman-32"/>
       <use x="63.623046875" xlink:href="#BitstreamVeraSans-Roman-30"/>
       <use x="127.24609375" xlink:href="#BitstreamVeraSans-Roman-30"/>
      </g>
     </g>
    </g>
    <g id="xtick_6">
     <g id="line2d_18">
      <path clip-path="url(#pee65bf5265)" d="M 585.064286 449.55 
L 585.064286 49.95 
" style="fill:none;stroke:#000000;stroke-dasharray:1.000000,3.000000;stroke-dashoffset:0.0;stroke-width:0.5;"/>
     </g>
     <g id="line2d_19">
      <g>
       <use style="stroke:#000000;stroke-width:0.5;" x="585.064285714" xlink:href="#m38c1980014" y="449.55"/>
      </g>
     </g>
     <g id="line2d_20">
      <g>
       <use style="stroke:#000000;stroke-width:0.5;" x="585.064285714" xlink:href="#md4ad234006" y="49.95"/>
      </g>
     </g>
     <g id="text_6">
      <!-- 250 -->
      <g transform="translate(564.068035714 470.2665625)scale(0.22 -0.22)">
       <use xlink:href="#BitstreamVeraSans-Roman-32"/>
       <use x="63.623046875" xlink:href="#BitstreamVeraSans-Roman-35"/>
       <use x="127.24609375" xlink:href="#BitstreamVeraSans-Roman-30"/>
      </g>
     </g>
    </g>
    <g id="xtick_7">
     <g id="line2d_21">
      <path clip-path="url(#pee65bf5265)" d="M 680.522143 449.55 
L 680.522143 49.95 
" style="fill:none;stroke:#000000;stroke-dasharray:1.000000,3.000000;stroke-dashoffset:0.0;stroke-width:0.5;"/>
     </g>
     <g id="line2d_22">
      <g>
       <use style="stroke:#000000;stroke-width:0.5;" x="680.522142857" xlink:href="#m38c1980014" y="449.55"/>
      </g>
     </g>
     <g id="line2d_23">
      <g>
       <use style="stroke:#000000;stroke-width:0.5;" x="680.522142857" xlink:href="#md4ad234006" y="49.95"/>
      </g>
     </g>
     <g id="text_7">
      <!-- 300 -->
      <defs>
       <path d="M 40.578125 39.3125 
Q 47.65625 37.796875 51.625 33 
Q 55.609375 28.21875 55.609375 21.1875 
Q 55.609375 10.40625 48.1875 4.484375 
Q 40.765625 -1.421875 27.09375 -1.421875 
Q 22.515625 -1.421875 17.65625 -0.515625 
Q 12.796875 0.390625 7.625 2.203125 
L 7.625 11.71875 
Q 11.71875 9.328125 16.59375 8.109375 
Q 21.484375 6.890625 26.8125 6.890625 
Q 36.078125 6.890625 40.9375 10.546875 
Q 45.796875 14.203125 45.796875 21.1875 
Q 45.796875 27.640625 41.28125 31.265625 
Q 36.765625 34.90625 28.71875 34.90625 
L 20.21875 34.90625 
L 20.21875 43.015625 
L 29.109375 43.015625 
Q 36.375 43.015625 40.234375 45.921875 
Q 44.09375 48.828125 44.09375 54.296875 
Q 44.09375 59.90625 40.109375 62.90625 
Q 36.140625 65.921875 28.71875 65.921875 
Q 24.65625 65.921875 20.015625 65.03125 
Q 15.375 64.15625 9.8125 62.3125 
L 9.8125 71.09375 
Q 15.4375 72.65625 20.34375 73.4375 
Q 25.25 74.21875 29.59375 74.21875 
Q 40.828125 74.21875 47.359375 69.109375 
Q 53.90625 64.015625 53.90625 55.328125 
Q 53.90625 49.265625 50.4375 45.09375 
Q 46.96875 40.921875 40.578125 39.3125 
" id="BitstreamVeraSans-Roman-33"/>
      </defs>
      <g transform="translate(659.525892857 470.2665625)scale(0.22 -0.22)">
       <use xlink:href="#BitstreamVeraSans-Roman-33"/>
       <use x="63.623046875" xlink:href="#BitstreamVeraSans-Roman-30"/>
       <use x="127.24609375" xlink:href="#BitstreamVeraSans-Roman-30"/>
      </g>
     </g>
    </g>
    <g id="xtick_8">
     <g id="line2d_24">
      <path clip-path="url(#pee65bf5265)" d="M 775.98 449.55 
L 775.98 49.95 
" style="fill:none;stroke:#000000;stroke-dasharray:1.000000,3.000000;stroke-dashoffset:0.0;stroke-width:0.5;"/>
     </g>
     <g id="line2d_25">
      <g>
       <use style="stroke:#000000;stroke-width:0.5;" x="775.98" xlink:href="#m38c1980014" y="449.55"/>
      </g>
     </g>
     <g id="line2d_26">
      <g>
       <use style="stroke:#000000;stroke-width:0.5;" x="775.98" xlink:href="#md4ad234006" y="49.95"/>
      </g>
     </g>
     <g id="text_8">
      <!-- 350 -->
      <g transform="translate(754.98375 470.2665625)scale(0.22 -0.22)">
       <use xlink:href="#BitstreamVeraSans-Roman-33"/>
       <use x="63.623046875" xlink:href="#BitstreamVeraSans-Roman-35"/>
       <use x="127.24609375" xlink:href="#BitstreamVeraSans-Roman-30"/>
      </g>
     </g>
    </g>
    <g id="text_9">
     <!-- Latency (ms) -->
     <defs>
      <path id="BitstreamVeraSans-Roman-20"/>
      <path d="M 52 44.1875 
Q 55.375 50.25 60.0625 53.125 
Q 64.75 56 71.09375 56 
Q 79.640625 56 84.28125 50.015625 
Q 88.921875 44.046875 88.921875 33.015625 
L 88.921875 0 
L 79.890625 0 
L 79.890625 32.71875 
Q 79.890625 40.578125 77.09375 44.375 
Q 74.3125 48.1875 68.609375 48.1875 
Q 61.625 48.1875 57.5625 43.546875 
Q 53.515625 38.921875 53.515625 30.90625 
L 53.515625 0 
L 44.484375 0 
L 44.484375 32.71875 
Q 44.484375 40.625 41.703125 44.40625 
Q 38.921875 48.1875 33.109375 48.1875 
Q 26.21875 48.1875 22.15625 43.53125 
Q 18.109375 38.875 18.109375 30.90625 
L 18.109375 0 
L 9.078125 0 
L 9.078125 54.6875 
L 18.109375 54.6875 
L 18.109375 46.1875 
Q 21.1875 51.21875 25.484375 53.609375 
Q 29.78125 56 35.6875 56 
Q 41.65625 56 45.828125 52.96875 
Q 50 49.953125 52 44.1875 
" id="BitstreamVeraSans-Roman-6d"/>
      <path d="M 9.8125 72.90625 
L 19.671875 72.90625 
L 19.671875 8.296875 
L 55.171875 8.296875 
L 55.171875 0 
L 9.8125 0 
z
" id="BitstreamVeraSans-Roman-4c"/>
      <path d="M 54.890625 33.015625 
L 54.890625 0 
L 45.90625 0 
L 45.90625 32.71875 
Q 45.90625 40.484375 42.875 44.328125 
Q 39.84375 48.1875 33.796875 48.1875 
Q 26.515625 48.1875 22.3125 43.546875 
Q 18.109375 38.921875 18.109375 30.90625 
L 18.109375 0 
L 9.078125 0 
L 9.078125 54.6875 
L 18.109375 54.6875 
L 18.109375 46.1875 
Q 21.34375 51.125 25.703125 53.5625 
Q 30.078125 56 35.796875 56 
Q 45.21875 56 50.046875 50.171875 
Q 54.890625 44.34375 54.890625 33.015625 
" id="BitstreamVeraSans-Roman-6e"/>
      <path d="M 31 75.875 
Q 24.46875 64.65625 21.28125 53.65625 
Q 18.109375 42.671875 18.109375 31.390625 
Q 18.109375 20.125 21.3125 9.0625 
Q 24.515625 -2 31 -13.1875 
L 23.1875 -13.1875 
Q 15.875 -1.703125 12.234375 9.375 
Q 8.59375 20.453125 8.59375 31.390625 
Q 8.59375 42.28125 12.203125 53.3125 
Q 15.828125 64.359375 23.1875 75.875 
z
" id="BitstreamVeraSans-Roman-28"/>
      <path d="M 8.015625 75.875 
L 15.828125 75.875 
Q 23.140625 64.359375 26.78125 53.3125 
Q 30.421875 42.28125 30.421875 31.390625 
Q 30.421875 20.453125 26.78125 9.375 
Q 23.140625 -1.703125 15.828125 -13.1875 
L 8.015625 -13.1875 
Q 14.5 -2 17.703125 9.0625 
Q 20.90625 20.125 20.90625 31.390625 
Q 20.90625 42.671875 17.703125 53.65625 
Q 14.5 64.65625 8.015625 75.875 
" id="BitstreamVeraSans-Roman-29"/>
      <path d="M 32.171875 -5.078125 
Q 28.375 -14.84375 24.75 -17.8125 
Q 21.140625 -20.796875 15.09375 -20.796875 
L 7.90625 -20.796875 
L 7.90625 -13.28125 
L 13.1875 -13.28125 
Q 16.890625 -13.28125 18.9375 -11.515625 
Q 21 -9.765625 23.484375 -3.21875 
L 25.09375 0.875 
L 2.984375 54.6875 
L 12.5 54.6875 
L 29.59375 11.921875 
L 46.6875 54.6875 
L 56.203125 54.6875 
z
" id="BitstreamVeraSans-Roman-79"/>
      <path d="M 56.203125 29.59375 
L 56.203125 25.203125 
L 14.890625 25.203125 
Q 15.484375 15.921875 20.484375 11.0625 
Q 25.484375 6.203125 34.421875 6.203125 
Q 39.59375 6.203125 44.453125 7.46875 
Q 49.3125 8.734375 54.109375 11.28125 
L 54.109375 2.78125 
Q 49.265625 0.734375 44.1875 -0.34375 
Q 39.109375 -1.421875 33.890625 -1.421875 
Q 20.796875 -1.421875 13.15625 6.1875 
Q 5.515625 13.8125 5.515625 26.8125 
Q 5.515625 40.234375 12.765625 48.109375 
Q 20.015625 56 32.328125 56 
Q 43.359375 56 49.78125 48.890625 
Q 56.203125 41.796875 56.203125 29.59375 
M 47.21875 32.234375 
Q 47.125 39.59375 43.09375 43.984375 
Q 39.0625 48.390625 32.421875 48.390625 
Q 24.90625 48.390625 20.390625 44.140625 
Q 15.875 39.890625 15.1875 32.171875 
z
" id="BitstreamVeraSans-Roman-65"/>
      <path d="M 18.3125 70.21875 
L 18.3125 54.6875 
L 36.8125 54.6875 
L 36.8125 47.703125 
L 18.3125 47.703125 
L 18.3125 18.015625 
Q 18.3125 11.328125 20.140625 9.421875 
Q 21.96875 7.515625 27.59375 7.515625 
L 36.8125 7.515625 
L 36.8125 0 
L 27.59375 0 
Q 17.1875 0 13.234375 3.875 
Q 9.28125 7.765625 9.28125 18.015625 
L 9.28125 47.703125 
L 2.6875 47.703125 
L 2.6875 54.6875 
L 9.28125 54.6875 
L 9.28125 70.21875 
z
" id="BitstreamVeraSans-Roman-74"/>
      <path d="M 34.28125 27.484375 
Q 23.390625 27.484375 19.1875 25 
Q 14.984375 22.515625 14.984375 16.5 
Q 14.984375 11.71875 18.140625 8.90625 
Q 21.296875 6.109375 26.703125 6.109375 
Q 34.1875 6.109375 38.703125 11.40625 
Q 43.21875 16.703125 43.21875 25.484375 
L 43.21875 27.484375 
z
M 52.203125 31.203125 
L 52.203125 0 
L 43.21875 0 
L 43.21875 8.296875 
Q 40.140625 3.328125 35.546875 0.953125 
Q 30.953125 -1.421875 24.3125 -1.421875 
Q 15.921875 -1.421875 10.953125 3.296875 
Q 6 8.015625 6 15.921875 
Q 6 25.140625 12.171875 29.828125 
Q 18.359375 34.515625 30.609375 34.515625 
L 43.21875 34.515625 
L 43.21875 35.40625 
Q 43.21875 41.609375 39.140625 45 
Q 35.0625 48.390625 27.6875 48.390625 
Q 23 48.390625 18.546875 47.265625 
Q 14.109375 46.140625 10.015625 43.890625 
L 10.015625 52.203125 
Q 14.9375 54.109375 19.578125 55.046875 
Q 24.21875 56 28.609375 56 
Q 40.484375 56 46.34375 49.84375 
Q 52.203125 43.703125 52.203125 31.203125 
" id="BitstreamVeraSans-Roman-61"/>
      <path d="M 44.28125 53.078125 
L 44.28125 44.578125 
Q 40.484375 46.53125 36.375 47.5 
Q 32.28125 48.484375 27.875 48.484375 
Q 21.1875 48.484375 17.84375 46.4375 
Q 14.5 44.390625 14.5 40.28125 
Q 14.5 37.15625 16.890625 35.375 
Q 19.28125 33.59375 26.515625 31.984375 
L 29.59375 31.296875 
Q 39.15625 29.25 43.1875 25.515625 
Q 47.21875 21.78125 47.21875 15.09375 
Q 47.21875 7.46875 41.1875 3.015625 
Q 35.15625 -1.421875 24.609375 -1.421875 
Q 20.21875 -1.421875 15.453125 -0.5625 
Q 10.6875 0.296875 5.421875 2 
L 5.421875 11.28125 
Q 10.40625 8.6875 15.234375 7.390625 
Q 20.0625 6.109375 24.8125 6.109375 
Q 31.15625 6.109375 34.5625 8.28125 
Q 37.984375 10.453125 37.984375 14.40625 
Q 37.984375 18.0625 35.515625 20.015625 
Q 33.0625 21.96875 24.703125 23.78125 
L 21.578125 24.515625 
Q 13.234375 26.265625 9.515625 29.90625 
Q 5.8125 33.546875 5.8125 39.890625 
Q 5.8125 47.609375 11.28125 51.796875 
Q 16.75 56 26.8125 56 
Q 31.78125 56 36.171875 55.265625 
Q 40.578125 54.546875 44.28125 53.078125 
" id="BitstreamVeraSans-Roman-73"/>
      <path d="M 48.78125 52.59375 
L 48.78125 44.1875 
Q 44.96875 46.296875 41.140625 47.34375 
Q 37.3125 48.390625 33.40625 48.390625 
Q 24.65625 48.390625 19.8125 42.84375 
Q 14.984375 37.3125 14.984375 27.296875 
Q 14.984375 17.28125 19.8125 11.734375 
Q 24.65625 6.203125 33.40625 6.203125 
Q 37.3125 6.203125 41.140625 7.25 
Q 44.96875 8.296875 48.78125 10.40625 
L 48.78125 2.09375 
Q 45.015625 0.34375 40.984375 -0.53125 
Q 36.96875 -1.421875 32.421875 -1.421875 
Q 20.0625 -1.421875 12.78125 6.34375 
Q 5.515625 14.109375 5.515625 27.296875 
Q 5.515625 40.671875 12.859375 48.328125 
Q 20.21875 56 33.015625 56 
Q 37.15625 56 41.109375 55.140625 
Q 45.0625 54.296875 48.78125 52.59375 
" id="BitstreamVeraSans-Roman-63"/>
     </defs>
     <g transform="translate(369.8721875 496.5584375)scale(0.22 -0.22)">
      <use xlink:href="#BitstreamVeraSans-Roman-4c"/>
      <use x="55.712890625" xlink:href="#BitstreamVeraSans-Roman-61"/>
      <use x="116.9921875" xlink:href="#BitstreamVeraSans-Roman-74"/>
      <use x="156.201171875" xlink:href="#BitstreamVeraSans-Roman-65"/>
      <use x="217.724609375" xlink:href="#BitstreamVeraSans-Roman-6e"/>
      <use x="281.103515625" xlink:href="#BitstreamVeraSans-Roman-63"/>
      <use x="336.083984375" xlink:href="#BitstreamVeraSans-Roman-79"/>
      <use x="395.263671875" xlink:href="#BitstreamVeraSans-Roman-20"/>
      <use x="427.05078125" xlink:href="#BitstreamVeraSans-Roman-28"/>
      <use x="466.064453125" xlink:href="#BitstreamVeraSans-Roman-6d"/>
      <use x="563.4765625" xlink:href="#BitstreamVeraSans-Roman-73"/>
      <use x="615.576171875" xlink:href="#BitstreamVeraSans-Roman-29"/>
     </g>
    </g>
   </g>
   <g id="matplotlib.axis_2">
    <g id="ytick_1">
     <g id="line2d_27">
      <path clip-path="url(#pee65bf5265)" d="M 107.775 449.55 
L 775.98 449.55 
" style="fill:none;stroke:#000000;stroke-dasharray:1.000000,3.000000;stroke-dashoffset:0.0;stroke-width:0.5;"/>
     </g>
     <g id="line2d_28">
      <defs>
       <path d="M 0 0 
L 4 0 
" id="m3f3779feb0" style="stroke:#000000;stroke-width:0.5;"/>
      </defs>
      <g>
       <use style="stroke:#000000;stroke-width:0.5;" x="107.775" xlink:href="#m3f3779feb0" y="449.55"/>
      </g>
     </g>
     <g id="line2d_29">
      <defs>
       <path d="M 0 0 
L -4 0 
" id="m962e441d96" style="stroke:#000000;stroke-width:0.5;"/>
      </defs>
      <g>
       <use style="stroke:#000000;stroke-width:0.5;" x="775.98" xlink:href="#m962e441d96" y="449.55"/>
      </g>
     </g>
     <g id="text_10">
      <!-- 0 -->
      <g transform="translate(89.7775 455.620625)scale(0.22 -0.22)">
       <use xlink:href="#BitstreamVeraSans-Roman-30"/>
      </g>
     </g>
    </g>
    <g id="ytick_2">
     <g id="line2d_30">
      <path clip-path="url(#pee65bf5265)" d="M 107.775 369.63 
L 775.98 369.63 
" style="fill:none;stroke:#000000;stroke-dasharray:1.000000,3.000000;stroke-dashoffset:0.0;stroke-width:0.5;"/>
     </g>
     <g id="line2d_31">
      <g>
       <use style="stroke:#000000;stroke-width:0.5;" x="107.775" xlink:href="#m3f3779feb0" y="369.63"/>
      </g>
     </g>
     <g id="line2d_32">
      <g>
       <use style="stroke:#000000;stroke-width:0.5;" x="775.98" xlink:href="#m962e441d96" y="369.63"/>
      </g>
     </g>
     <g id="text_11">
      <!-- 20 -->
      <g transform="translate(75.78 375.700625)scale(0.22 -0.22)">
       <use xlink:href="#BitstreamVeraSans-Roman-32"/>
       <use x="63.623046875" xlink:href="#BitstreamVeraSans-Roman-30"/>
      </g>
     </g>
    </g>
    <g id="ytick_3">
     <g id="line2d_33">
      <path clip-path="url(#pee65bf5265)" d="M 107.775 289.71 
L 775.98 289.71 
" style="fill:none;stroke:#000000;stroke-dasharray:1.000000,3.000000;stroke-dashoffset:0.0;stroke-width:0.5;"/>
     </g>
     <g id="line2d_34">
      <g>
       <use style="stroke:#000000;stroke-width:0.5;" x="107.775" xlink:href="#m3f3779feb0" y="289.71"/>
      </g>
     </g>
     <g id="line2d_35">
      <g>
       <use style="stroke:#000000;stroke-width:0.5;" x="775.98" xlink:href="#m962e441d96" y="289.71"/>
      </g>
     </g>
     <g id="text_12">
      <!-- 40 -->
      <defs>
       <path d="M 37.796875 64.3125 
L 12.890625 25.390625 
L 37.796875 25.390625 
z
M 35.203125 72.90625 
L 47.609375 72.90625 
L 47.609375 25.390625 
L 58.015625 25.390625 
L 58.015625 17.1875 
L 47.609375 17.1875 
L 47.609375 0 
L 37.796875 0 
L 37.796875 17.1875 
L 4.890625 17.1875 
L 4.890625 26.703125 
z
" id="BitstreamVeraSans-Roman-34"/>
      </defs>
      <g transform="translate(75.78 295.780625)scale(0.22 -0.22)">
       <use xlink:href="#BitstreamVeraSans-Roman-34"/>
       <use x="63.623046875" xlink:href="#BitstreamVeraSans-Roman-30"/>
      </g>
     </g>
    </g>
    <g id="ytick_4">
     <g id="line2d_36">
      <path clip-path="url(#pee65bf5265)" d="M 107.775 209.79 
L 775.98 209.79 
" style="fill:none;stroke:#000000;stroke-dasharray:1.000000,3.000000;stroke-dashoffset:0.0;stroke-width:0.5;"/>
     </g>
     <g id="line2d_37">
      <g>
       <use style="stroke:#000000;stroke-width:0.5;" x="107.775" xlink:href="#m3f3779feb0" y="209.79"/>
      </g>
     </g>
     <g id="line2d_38">
      <g>
       <use style="stroke:#000000;stroke-width:0.5;" x="775.98" xlink:href="#m962e441d96" y="209.79"/>
      </g>
     </g>
     <g id="text_13">
      <!-- 60 -->
      <defs>
       <path d="M 33.015625 40.375 
Q 26.375 40.375 22.484375 35.828125 
Q 18.609375 31.296875 18.609375 23.390625 
Q 18.609375 15.53125 22.484375 10.953125 
Q 26.375 6.390625 33.015625 6.390625 
Q 39.65625 6.390625 43.53125 10.953125 
Q 47.40625 15.53125 47.40625 23.390625 
Q 47.40625 31.296875 43.53125 35.828125 
Q 39.65625 40.375 33.015625 40.375 
M 52.59375 71.296875 
L 52.59375 62.3125 
Q 48.875 64.0625 45.09375 64.984375 
Q 41.3125 65.921875 37.59375 65.921875 
Q 27.828125 65.921875 22.671875 59.328125 
Q 17.53125 52.734375 16.796875 39.40625 
Q 19.671875 43.65625 24.015625 45.921875 
Q 28.375 48.1875 33.59375 48.1875 
Q 44.578125 48.1875 50.953125 41.515625 
Q 57.328125 34.859375 57.328125 23.390625 
Q 57.328125 12.15625 50.6875 5.359375 
Q 44.046875 -1.421875 33.015625 -1.421875 
Q 20.359375 -1.421875 13.671875 8.265625 
Q 6.984375 17.96875 6.984375 36.375 
Q 6.984375 53.65625 15.1875 63.9375 
Q 23.390625 74.21875 37.203125 74.21875 
Q 40.921875 74.21875 44.703125 73.484375 
Q 48.484375 72.75 52.59375 71.296875 
" id="BitstreamVeraSans-Roman-36"/>
      </defs>
      <g transform="translate(75.78 215.860625)scale(0.22 -0.22)">
       <use xlink:href="#BitstreamVeraSans-Roman-36"/>
       <use x="63.623046875" xlink:href="#BitstreamVeraSans-Roman-30"/>
      </g>
     </g>
    </g>
    <g id="ytick_5">
     <g id="line2d_39">
      <path clip-path="url(#pee65bf5265)" d="M 107.775 129.87 
L 775.98 129.87 
" style="fill:none;stroke:#000000;stroke-dasharray:1.000000,3.000000;stroke-dashoffset:0.0;stroke-width:0.5;"/>
     </g>
     <g id="line2d_40">
      <g>
       <use style="stroke:#000000;stroke-width:0.5;" x="107.775" xlink:href="#m3f3779feb0" y="129.87"/>
      </g>
     </g>
     <g id="line2d_41">
      <g>
       <use style="stroke:#000000;stroke-width:0.5;" x="775.98" xlink:href="#m962e441d96" y="129.87"/>
      </g>
     </g>
     <g id="text_14">
      <!-- 80 -->
      <defs>
       <path d="M 31.78125 34.625 
Q 24.75 34.625 20.71875 30.859375 
Q 16.703125 27.09375 16.703125 20.515625 
Q 16.703125 13.921875 20.71875 10.15625 
Q 24.75 6.390625 31.78125 6.390625 
Q 38.8125 6.390625 42.859375 10.171875 
Q 46.921875 13.96875 46.921875 20.515625 
Q 46.921875 27.09375 42.890625 30.859375 
Q 38.875 34.625 31.78125 34.625 
M 21.921875 38.8125 
Q 15.578125 40.375 12.03125 44.71875 
Q 8.5 49.078125 8.5 55.328125 
Q 8.5 64.0625 14.71875 69.140625 
Q 20.953125 74.21875 31.78125 74.21875 
Q 42.671875 74.21875 48.875 69.140625 
Q 55.078125 64.0625 55.078125 55.328125 
Q 55.078125 49.078125 51.53125 44.71875 
Q 48 40.375 41.703125 38.8125 
Q 48.828125 37.15625 52.796875 32.3125 
Q 56.78125 27.484375 56.78125 20.515625 
Q 56.78125 9.90625 50.3125 4.234375 
Q 43.84375 -1.421875 31.78125 -1.421875 
Q 19.734375 -1.421875 13.25 4.234375 
Q 6.78125 9.90625 6.78125 20.515625 
Q 6.78125 27.484375 10.78125 32.3125 
Q 14.796875 37.15625 21.921875 38.8125 
M 18.3125 54.390625 
Q 18.3125 48.734375 21.84375 45.5625 
Q 25.390625 42.390625 31.78125 42.390625 
Q 38.140625 42.390625 41.71875 45.5625 
Q 45.3125 48.734375 45.3125 54.390625 
Q 45.3125 60.0625 41.71875 63.234375 
Q 38.140625 66.40625 31.78125 66.40625 
Q 25.390625 66.40625 21.84375 63.234375 
Q 18.3125 60.0625 18.3125 54.390625 
" id="BitstreamVeraSans-Roman-38"/>
      </defs>
      <g transform="translate(75.78 135.940625)scale(0.22 -0.22)">
       <use xlink:href="#BitstreamVeraSans-Roman-38"/>
       <use x="63.623046875" xlink:href="#BitstreamVeraSans-Roman-30"/>
      </g>
     </g>
    </g>
    <g id="ytick_6">
     <g id="line2d_42">
      <path clip-path="url(#pee65bf5265)" d="M 107.775 49.95 
L 775.98 49.95 
" style="fill:none;stroke:#000000;stroke-dasharray:1.000000,3.000000;stroke-dashoffset:0.0;stroke-width:0.5;"/>
     </g>
     <g id="line2d_43">
      <g>
       <use style="stroke:#000000;stroke-width:0.5;" x="107.775" xlink:href="#m3f3779feb0" y="49.95"/>
      </g>
     </g>
     <g id="line2d_44">
      <g>
       <use style="stroke:#000000;stroke-width:0.5;" x="775.98" xlink:href="#m962e441d96" y="49.95"/>
      </g>
     </g>
     <g id="text_15">
      <!-- 100 -->
      <g transform="translate(61.7825 56.020625)scale(0.22 -0.22)">
       <use xlink:href="#BitstreamVeraSans-Roman-31"/>
       <use x="63.623046875" xlink:href="#BitstreamVeraSans-Roman-30"/>
       <use x="127.24609375" xlink:href="#BitstreamVeraSans-Roman-30"/>
      </g>
     </g>
    </g>
    <g id="text_16">
     <!-- % of time spent -->
     <defs>
      <path d="M 37.109375 75.984375 
L 37.109375 68.5 
L 28.515625 68.5 
Q 23.6875 68.5 21.796875 66.546875 
Q 19.921875 64.59375 19.921875 59.515625 
L 19.921875 54.6875 
L 34.71875 54.6875 
L 34.71875 47.703125 
L 19.921875 47.703125 
L 19.921875 0 
L 10.890625 0 
L 10.890625 47.703125 
L 2.296875 47.703125 
L 2.296875 54.6875 
L 10.890625 54.6875 
L 10.890625 58.5 
Q 10.890625 67.625 15.140625 71.796875 
Q 19.390625 75.984375 28.609375 75.984375 
z
" id="BitstreamVeraSans-Roman-66"/>
      <path d="M 9.421875 54.6875 
L 18.40625 54.6875 
L 18.40625 0 
L 9.421875 0 
z
M 9.421875 75.984375 
L 18.40625 75.984375 
L 18.40625 64.59375 
L 9.421875 64.59375 
z
" id="BitstreamVeraSans-Roman-69"/>
      <path d="M 30.609375 48.390625 
Q 23.390625 48.390625 19.1875 42.75 
Q 14.984375 37.109375 14.984375 27.296875 
Q 14.984375 17.484375 19.15625 11.84375 
Q 23.34375 6.203125 30.609375 6.203125 
Q 37.796875 6.203125 41.984375 11.859375 
Q 46.1875 17.53125 46.1875 27.296875 
Q 46.1875 37.015625 41.984375 42.703125 
Q 37.796875 48.390625 30.609375 48.390625 
M 30.609375 56 
Q 42.328125 56 49.015625 48.375 
Q 55.71875 40.765625 55.71875 27.296875 
Q 55.71875 13.875 49.015625 6.21875 
Q 42.328125 -1.421875 30.609375 -1.421875 
Q 18.84375 -1.421875 12.171875 6.21875 
Q 5.515625 13.875 5.515625 27.296875 
Q 5.515625 40.765625 12.171875 48.375 
Q 18.84375 56 30.609375 56 
" id="BitstreamVeraSans-Roman-6f"/>
      <path d="M 72.703125 32.078125 
Q 68.453125 32.078125 66.03125 28.46875 
Q 63.625 24.859375 63.625 18.40625 
Q 63.625 12.0625 66.03125 8.421875 
Q 68.453125 4.78125 72.703125 4.78125 
Q 76.859375 4.78125 79.265625 8.421875 
Q 81.6875 12.0625 81.6875 18.40625 
Q 81.6875 24.8125 79.265625 28.4375 
Q 76.859375 32.078125 72.703125 32.078125 
M 72.703125 38.28125 
Q 80.421875 38.28125 84.953125 32.90625 
Q 89.5 27.546875 89.5 18.40625 
Q 89.5 9.28125 84.9375 3.921875 
Q 80.375 -1.421875 72.703125 -1.421875 
Q 64.890625 -1.421875 60.34375 3.921875 
Q 55.8125 9.28125 55.8125 18.40625 
Q 55.8125 27.59375 60.375 32.9375 
Q 64.9375 38.28125 72.703125 38.28125 
M 22.3125 68.015625 
Q 18.109375 68.015625 15.6875 64.375 
Q 13.28125 60.75 13.28125 54.390625 
Q 13.28125 47.953125 15.671875 44.328125 
Q 18.0625 40.71875 22.3125 40.71875 
Q 26.5625 40.71875 28.96875 44.328125 
Q 31.390625 47.953125 31.390625 54.390625 
Q 31.390625 60.6875 28.953125 64.34375 
Q 26.515625 68.015625 22.3125 68.015625 
M 66.40625 74.21875 
L 74.21875 74.21875 
L 28.609375 -1.421875 
L 20.796875 -1.421875 
z
M 22.3125 74.21875 
Q 30.03125 74.21875 34.609375 68.875 
Q 39.203125 63.53125 39.203125 54.390625 
Q 39.203125 45.171875 34.640625 39.84375 
Q 30.078125 34.515625 22.3125 34.515625 
Q 14.546875 34.515625 10.03125 39.859375 
Q 5.515625 45.21875 5.515625 54.390625 
Q 5.515625 63.484375 10.046875 68.84375 
Q 14.59375 74.21875 22.3125 74.21875 
" id="BitstreamVeraSans-Roman-25"/>
      <path d="M 18.109375 8.203125 
L 18.109375 -20.796875 
L 9.078125 -20.796875 
L 9.078125 54.6875 
L 18.109375 54.6875 
L 18.109375 46.390625 
Q 20.953125 51.265625 25.265625 53.625 
Q 29.59375 56 35.59375 56 
Q 45.5625 56 51.78125 48.09375 
Q 58.015625 40.1875 58.015625 27.296875 
Q 58.015625 14.40625 51.78125 6.484375 
Q 45.5625 -1.421875 35.59375 -1.421875 
Q 29.59375 -1.421875 25.265625 0.953125 
Q 20.953125 3.328125 18.109375 8.203125 
M 48.6875 27.296875 
Q 48.6875 37.203125 44.609375 42.84375 
Q 40.53125 48.484375 33.40625 48.484375 
Q 26.265625 48.484375 22.1875 42.84375 
Q 18.109375 37.203125 18.109375 27.296875 
Q 18.109375 17.390625 22.1875 11.75 
Q 26.265625 6.109375 33.40625 6.109375 
Q 40.53125 6.109375 44.609375 11.75 
Q 48.6875 17.390625 48.6875 27.296875 
" id="BitstreamVeraSans-Roman-70"/>
     </defs>
     <g transform="translate(52.2071875 336.90953125)rotate(-90.0)scale(0.22 -0.22)">
      <use xlink:href="#BitstreamVeraSans-Roman-25"/>
      <use x="95.01953125" xlink:href="#BitstreamVeraSans-Roman-20"/>
      <use x="126.806640625" xlink:href="#BitstreamVeraSans-Roman-6f"/>
      <use x="187.98828125" xlink:href="#BitstreamVeraSans-Roman-66"/>
      <use x="223.193359375" xlink:href="#BitstreamVeraSans-Roman-20"/>
      <use x="254.98046875" xlink:href="#BitstreamVeraSans-Roman-74"/>
      <use x="294.189453125" xlink:href="#BitstreamVeraSans-Roman-69"/>
      <use x="321.97265625" xlink:href="#BitstreamVeraSans-Roman-6d"/>
      <use x="419.384765625" xlink:href="#BitstreamVeraSans-Roman-65"/>
      <use x="480.908203125" xlink:href="#BitstreamVeraSans-Roman-20"/>
      <use x="512.6953125" xlink:href="#BitstreamVeraSans-Roman-73"/>
      <use x="564.794921875" xlink:href="#BitstreamVeraSans-Roman-70"/>
      <use x="628.271484375" xlink:href="#BitstreamVeraSans-Roman-65"/>
      <use x="689.794921875" xlink:href="#BitstreamVeraSans-Roman-6e"/>
      <use x="753.173828125" xlink:href="#BitstreamVeraSans-Roman-74"/>
     </g>
    </g>
   </g>
   <g id="legend_1">
    <g id="patch_7">
     <path d="M 114.975 126.9705 
L 406.976625 126.9705 
L 406.976625 57.15 
L 114.975 57.15 
z
" style="fill:#ffffff;stroke:#000000;stroke-linejoin:miter;"/>
    </g>
    <g id="line2d_45">
     <path d="M 125.055 77.929875 
L 145.215 77.929875 
" style="fill:none;stroke:#0000ff;stroke-linecap:square;"/>
    </g>
    <g id="line2d_46"/>
    <g id="text_17">
     <!-- cont, 128GB swap -->
     <defs>
      <path d="M 59.515625 10.40625 
L 59.515625 29.984375 
L 43.40625 29.984375 
L 43.40625 38.09375 
L 69.28125 38.09375 
L 69.28125 6.78125 
Q 63.578125 2.734375 56.6875 0.65625 
Q 49.8125 -1.421875 42 -1.421875 
Q 24.90625 -1.421875 15.25 8.5625 
Q 5.609375 18.5625 5.609375 36.375 
Q 5.609375 54.25 15.25 64.234375 
Q 24.90625 74.21875 42 74.21875 
Q 49.125 74.21875 55.546875 72.453125 
Q 61.96875 70.703125 67.390625 67.28125 
L 67.390625 56.78125 
Q 61.921875 61.421875 55.765625 63.765625 
Q 49.609375 66.109375 42.828125 66.109375 
Q 29.4375 66.109375 22.71875 58.640625 
Q 16.015625 51.171875 16.015625 36.375 
Q 16.015625 21.625 22.71875 14.15625 
Q 29.4375 6.6875 42.828125 6.6875 
Q 48.046875 6.6875 52.140625 7.59375 
Q 56.25 8.5 59.515625 10.40625 
" id="BitstreamVeraSans-Roman-47"/>
      <path d="M 4.203125 54.6875 
L 13.1875 54.6875 
L 24.421875 12.015625 
L 35.59375 54.6875 
L 46.1875 54.6875 
L 57.421875 12.015625 
L 68.609375 54.6875 
L 77.59375 54.6875 
L 63.28125 0 
L 52.6875 0 
L 40.921875 44.828125 
L 29.109375 0 
L 18.5 0 
z
" id="BitstreamVeraSans-Roman-77"/>
      <path d="M 11.71875 12.40625 
L 22.015625 12.40625 
L 22.015625 4 
L 14.015625 -11.625 
L 7.71875 -11.625 
L 11.71875 4 
z
" id="BitstreamVeraSans-Roman-2c"/>
      <path d="M 19.671875 34.8125 
L 19.671875 8.109375 
L 35.5 8.109375 
Q 43.453125 8.109375 47.28125 11.40625 
Q 51.125 14.703125 51.125 21.484375 
Q 51.125 28.328125 47.28125 31.5625 
Q 43.453125 34.8125 35.5 34.8125 
z
M 19.671875 64.796875 
L 19.671875 42.828125 
L 34.28125 42.828125 
Q 41.5 42.828125 45.03125 45.53125 
Q 48.578125 48.25 48.578125 53.8125 
Q 48.578125 59.328125 45.03125 62.0625 
Q 41.5 64.796875 34.28125 64.796875 
z
M 9.8125 72.90625 
L 35.015625 72.90625 
Q 46.296875 72.90625 52.390625 68.21875 
Q 58.5 63.53125 58.5 54.890625 
Q 58.5 48.1875 55.375 44.234375 
Q 52.25 40.28125 46.1875 39.3125 
Q 53.46875 37.75 57.5 32.78125 
Q 61.53125 27.828125 61.53125 20.40625 
Q 61.53125 10.640625 54.890625 5.3125 
Q 48.25 0 35.984375 0 
L 9.8125 0 
z
" id="BitstreamVeraSans-Roman-42"/>
     </defs>
     <g transform="translate(161.055 82.969875)scale(0.264 -0.264)">
      <use xlink:href="#BitstreamVeraSans-Roman-63"/>
      <use x="54.98046875" xlink:href="#BitstreamVeraSans-Roman-6f"/>
      <use x="116.162109375" xlink:href="#BitstreamVeraSans-Roman-6e"/>
      <use x="179.541015625" xlink:href="#BitstreamVeraSans-Roman-74"/>
      <use x="218.75" xlink:href="#BitstreamVeraSans-Roman-2c"/>
      <use x="250.537109375" xlink:href="#BitstreamVeraSans-Roman-20"/>
      <use x="282.32421875" xlink:href="#BitstreamVeraSans-Roman-31"/>
      <use x="345.947265625" xlink:href="#BitstreamVeraSans-Roman-32"/>
      <use x="409.5703125" xlink:href="#BitstreamVeraSans-Roman-38"/>
      <use x="473.193359375" xlink:href="#BitstreamVeraSans-Roman-47"/>
      <use x="550.68359375" xlink:href="#BitstreamVeraSans-Roman-42"/>
      <use x="619.287109375" xlink:href="#BitstreamVeraSans-Roman-20"/>
      <use x="651.07421875" xlink:href="#BitstreamVeraSans-Roman-73"/>
      <use x="703.173828125" xlink:href="#BitstreamVeraSans-Roman-77"/>
      <use x="784.9609375" xlink:href="#BitstreamVeraSans-Roman-61"/>
      <use x="846.240234375" xlink:href="#BitstreamVeraSans-Roman-70"/>
     </g>
    </g>
    <g id="line2d_47">
     <path d="M 125.055 110.680125 
L 145.215 110.680125 
" style="fill:none;stroke:#008000;stroke-linecap:square;"/>
    </g>
    <g id="line2d_48"/>
    <g id="text_18">
     <!-- cont, 32GB swap -->
     <g transform="translate(161.055 115.720125)scale(0.264 -0.264)">
      <use xlink:href="#BitstreamVeraSans-Roman-63"/>
      <use x="54.98046875" xlink:href="#BitstreamVeraSans-Roman-6f"/>
      <use x="116.162109375" xlink:href="#BitstreamVeraSans-Roman-6e"/>
      <use x="179.541015625" xlink:href="#BitstreamVeraSans-Roman-74"/>
      <use x="218.75" xlink:href="#BitstreamVeraSans-Roman-2c"/>
      <use x="250.537109375" xlink:href="#BitstreamVeraSans-Roman-20"/>
      <use x="282.32421875" xlink:href="#BitstreamVeraSans-Roman-33"/>
      <use x="345.947265625" xlink:href="#BitstreamVeraSans-Roman-32"/>
      <use x="409.5703125" xlink:href="#BitstreamVeraSans-Roman-47"/>
      <use x="487.060546875" xlink:href="#BitstreamVeraSans-Roman-42"/>
      <use x="555.6640625" xlink:href="#BitstreamVeraSans-Roman-20"/>
      <use x="587.451171875" xlink:href="#BitstreamVeraSans-Roman-73"/>
      <use x="639.55078125" xlink:href="#BitstreamVeraSans-Roman-77"/>
      <use x="721.337890625" xlink:href="#BitstreamVeraSans-Roman-61"/>
      <use x="782.6171875" xlink:href="#BitstreamVeraSans-Roman-70"/>
     </g>
    </g>
   </g>
  </g>
 </g>
 <defs>
  <clipPath id="pee65bf5265">
   <rect height="399.6" width="668.205" x="107.775" y="49.95"/>
  </clipPath>
 </defs>
</svg>
